<svg width="15" height="15" viewBox="0 0 15 15" fill="none" xmlns="http://www.w3.org/2000/svg">
<g id="ArrowUpRight">
<path id="Vector" d="M11.4377 4.205V9.8925C11.4377 10.0085 11.3916 10.1198 11.3096 10.2019C11.2276 10.2839 11.1163 10.33 11.0002 10.33C10.8842 10.33 10.7729 10.2839 10.6909 10.2019C10.6088 10.1198 10.5627 10.0085 10.5627 9.8925V5.26102L4.30977 11.5145C4.22768 11.5966 4.11634 11.6427 4.00024 11.6427C3.88415 11.6427 3.7728 11.5966 3.69071 11.5145C3.60862 11.4324 3.5625 11.3211 3.5625 11.205C3.5625 11.0889 3.60862 10.9776 3.69071 10.8955L9.94423 4.6425H5.31274C5.19671 4.6425 5.08543 4.59641 5.00338 4.51436C4.92134 4.43231 4.87524 4.32103 4.87524 4.205C4.87524 4.08897 4.92134 3.97769 5.00338 3.89564C5.08543 3.8136 5.19671 3.7675 5.31274 3.7675H11.0002C11.1163 3.7675 11.2276 3.8136 11.3096 3.89564C11.3916 3.97769 11.4377 4.08897 11.4377 4.205Z" fill="white"/>
</g>
</svg>
